<svg xmlns="http://www.w3.org/2000/svg" viewBox="0 0 48 32" shape-rendering="crispEdges"><style>.b{display:none}@keyframes k1{0%,49.9%{display:block}50%,100%{display:none}}@keyframes k2{0%,49.9%{display:none}50%,100%{display:block}}.a{animation:k1 .33s infinite}.b{animation:k2 .33s infinite}</style><g class="a"><rect x="33" y="6" width="8" height="8" fill="#fff"/><rect x="36" y="1" width="2" height="5" fill="#fff"/><rect x="33" y="1" width="2" height="5" fill="#fff"/><rect x="35" y="9" width="6" height="2" fill="#0a0a0a"/><rect x="24" y="12" width="9" height="7" fill="#000"/><rect x="18" y="12" width="6" height="2" fill="#000"/><rect x="20" y="10" width="4" height="2" fill="#000"/><rect x="16" y="12" width="2" height="1" fill="#808080"/><rect x="15" y="11" width="1" height="2" fill="#808080"/><rect x="21" y="16" width="3" height="5" fill="#080808"/><rect x="24" y="19" width="3" height="2" fill="#000"/><rect x="22" y="21" width="2" height="2" fill="#000"/><rect x="30" y="18" width="3" height="2" fill="#000"/><rect x="33" y="19" width="2" height="2" fill="#000"/></g><g class="b"><rect x="33" y="5" width="8" height="8" fill="#fff"/><rect x="36" y="0" width="2" height="5" fill="#fff"/><rect x="33" y="0" width="2" height="5" fill="#fff"/><rect x="35" y="8" width="6" height="2" fill="#0a0a0a"/><rect x="24" y="11" width="9" height="7" fill="#000"/><rect x="18" y="11" width="6" height="2" fill="#000"/><rect x="20" y="9" width="4" height="2" fill="#000"/><rect x="16" y="11" width="2" height="1" fill="#808080"/><rect x="15" y="10" width="1" height="2" fill="#808080"/><rect x="21" y="15" width="3" height="5" fill="#080808"/><rect x="26" y="18" width="2" height="4" fill="#000"/><rect x="29" y="18" width="2" height="4" fill="#000"/></g></svg>