<svg xmlns="http://www.w3.org/2000/svg" viewBox="0 0 56 36" shape-rendering="crispEdges"><style>.f2,.f3,.f4{opacity:0}@keyframes k1{0%,24.999%{opacity:1}25%,100%{opacity:0}}@keyframes k2{0%,24.999%{opacity:0}25%,49.999%{opacity:1}50%,100%{opacity:0}}@keyframes k3{0%,49.999%{opacity:0}50%,74.999%{opacity:1}75%,100%{opacity:0}}@keyframes k4{0%,74.999%{opacity:0}75%,100%{opacity:1}}.f1{animation:k1 0.46s steps(1,end) infinite}.f2{animation:k2 0.46s steps(1,end) infinite}.f3{animation:k3 0.46s steps(1,end) infinite}.f4{animation:k4 0.46s steps(1,end) infinite}</style><g class="f1"><rect x="34" y="8" width="10" height="9" fill="#fff"/><rect x="37" y="3" width="2" height="5" fill="#fff"/><rect x="34" y="3" width="2" height="5" fill="#fff"/><rect x="36" y="11" width="8" height="2" fill="#050505"/><rect x="22" y="14" width="12" height="7" fill="#000"/><rect x="16" y="14" width="6" height="2" fill="#000"/><rect x="18" y="12" width="4" height="2" fill="#000"/><rect x="14" y="14" width="2" height="1" fill="#888"/><rect x="13" y="13" width="1" height="2" fill="#888"/><rect x="20" y="17" width="3" height="6" fill="#050505"/><rect x="17" y="18" width="3" height="4" fill="#050505"/><rect x="27" y="21" width="4" height="2" fill="#000"/><rect x="24" y="23" width="3" height="2" fill="#000"/><rect x="34" y="21" width="3" height="2" fill="#000"/><rect x="37" y="23" width="2" height="2" fill="#000"/></g><g class="f2"><rect x="34" y="7" width="10" height="9" fill="#fff"/><rect x="37" y="2" width="2" height="5" fill="#fff"/><rect x="34" y="2" width="2" height="5" fill="#fff"/><rect x="36" y="10" width="8" height="2" fill="#050505"/><rect x="22" y="13" width="12" height="7" fill="#000"/><rect x="16" y="13" width="6" height="2" fill="#000"/><rect x="18" y="11" width="4" height="2" fill="#000"/><rect x="14" y="13" width="2" height="1" fill="#888"/><rect x="13" y="12" width="1" height="2" fill="#888"/><rect x="20" y="16" width="3" height="6" fill="#050505"/><rect x="17" y="17" width="3" height="4" fill="#050505"/><rect x="29" y="21" width="2" height="2" fill="#000"/><rect x="28" y="23" width="2" height="2" fill="#000"/><rect x="27" y="20" width="2" height="5" fill="#000"/><rect x="26" y="22" width="2" height="5" fill="#000"/></g><g class="f3"><rect x="34" y="8" width="10" height="9" fill="#fff"/><rect x="37" y="3" width="2" height="5" fill="#fff"/><rect x="34" y="3" width="2" height="5" fill="#fff"/><rect x="36" y="11" width="8" height="2" fill="#050505"/><rect x="22" y="14" width="12" height="7" fill="#000"/><rect x="16" y="14" width="6" height="2" fill="#000"/><rect x="18" y="12" width="4" height="2" fill="#000"/><rect x="14" y="14" width="2" height="1" fill="#888"/><rect x="13" y="13" width="1" height="2" fill="#888"/><rect x="20" y="17" width="3" height="6" fill="#050505"/><rect x="17" y="18" width="3" height="4" fill="#050505"/><rect x="28" y="20" width="4" height="2" fill="#000"/><rect x="25" y="22" width="3" height="2" fill="#000"/><rect x="35" y="22" width="3" height="2" fill="#000"/><rect x="38" y="24" width="2" height="2" fill="#000"/></g><g class="f4"><rect x="34" y="9" width="10" height="9" fill="#fff"/><rect x="37" y="4" width="2" height="5" fill="#fff"/><rect x="34" y="4" width="2" height="5" fill="#fff"/><rect x="36" y="12" width="8" height="2" fill="#050505"/><rect x="22" y="15" width="12" height="7" fill="#000"/><rect x="16" y="15" width="6" height="2" fill="#000"/><rect x="18" y="13" width="4" height="2" fill="#000"/><rect x="14" y="15" width="2" height="1" fill="#888"/><rect x="13" y="14" width="1" height="2" fill="#888"/><rect x="20" y="18" width="3" height="6" fill="#050505"/><rect x="17" y="19" width="3" height="4" fill="#050505"/><rect x="30" y="21" width="2" height="2" fill="#000"/><rect x="29" y="22" width="2" height="2" fill="#000"/><rect x="28" y="20" width="2" height="5" fill="#000"/><rect x="27" y="22" width="2" height="5" fill="#000"/></g></svg>