<svg xmlns="http://www.w3.org/2000/svg" viewBox="0 0 32 32" shape-rendering="crispEdges">
  <style>
    .f2 { display: none; }
    @keyframes a { 0%,49.9% { display:block; } 50%,100% { display:none; } }
    @keyframes b { 0%,49.9% { display:none; } 50%,100% { display:block; } }
    .frame1 { animation: a 0.20s infinite; }
    .frame2 { animation: b 0.20s infinite; }
  </style>

  <g class="frame1">
    <!-- same head -->
    <rect x="19" y="6" width="8" height="8" fill="#fff"/>
    <rect x="22" y="1" width="2" height="5" fill="#fff"/>
    <rect x="19" y="1" width="2" height="5" fill="#fff"/>
    <rect x="21" y="9" width="6" height="2" fill="#0a0a0a"/>

    <!-- more dramatic Naruto lean -->
    <rect x="11" y="13" width="9" height="7" fill="#151515"/>
    <rect x="10" y="14" width="1" height="5" fill="#151515"/>
    <rect x="20" y="14" width="1" height="5" fill="#151515"/>

    <!-- both arms swept back -->
    <rect x="6" y="14" width="6" height="2" fill="#151515"/>
    <rect x="8" y="12" width="4" height="2" fill="#151515"/>

    <!-- gun in right hand backward -->
    <rect x="4" y="14" width="2" height="1" fill="#353535"/>
    <rect x="3" y="13" width="1" height="2" fill="#353535"/>

    <!-- legs aggressive sprint -->
    <rect x="11" y="20" width="3" height="2" fill="#151515"/>
    <rect x="9" y="22" width="2" height="2" fill="#151515"/>
    <rect x="19" y="20" width="3" height="2" fill="#151515"/>
    <rect x="22" y="22" width="2" height="2" fill="#151515"/>

    <!-- bigger coat billow -->
    <rect x="7" y="16" width="4" height="5" fill="#0d0d0d"/>
    <rect x="5" y="17" width="2" height="3" fill="#0d0d0d"/>
    <rect x="3" y="18" width="2" height="2" fill="#0d0d0d"/>
  </g>

  <g class="frame2">
    <rect x="19" y="5" width="8" height="8" fill="#fff"/>
    <rect x="22" y="0" width="2" height="5" fill="#fff"/>
    <rect x="19" y="0" width="2" height="5" fill="#fff"/>
    <rect x="21" y="8" width="6" height="2" fill="#0a0a0a"/>

    <rect x="11" y="12" width="9" height="7" fill="#151515"/>
    <rect x="10" y="13" width="1" height="5" fill="#151515"/>
    <rect x="20" y="13" width="1" height="5" fill="#151515"/>

    <rect x="6" y="13" width="6" height="2" fill="#151515"/>
    <rect x="8" y="11" width="4" height="2" fill="#151515"/>

    <rect x="4" y="13" width="2" height="1" fill="#353535"/>
    <rect x="3" y="12" width="1" height="2" fill="#353535"/>

    <rect x="14" y="19" width="2" height="4" fill="#151515"/>
    <rect x="17" y="19" width="2" height="4" fill="#151515"/>

    <rect x="7" y="15" width="4" height="5" fill="#0d0d0d"/>
    <rect x="5" y="16" width="2" height="3" fill="#0d0d0d"/>
    <rect x="3" y="17" width="2" height="2" fill="#0d0d0d"/>
  </g>
</svg>