<svg xmlns="http://www.w3.org/2000/svg" viewBox="0 0 50 32" shape-rendering="crispEdges"><style>.b{display:none}@keyframes a{0%,49.9%{display:block}50%,100%{display:none}}@keyframes c{0%,49.9%{display:none}50%,100%{display:block}}.x{animation:a .34s infinite}.y{animation:c .34s infinite}</style><g class="x"><rect x="34" y="6" width="8" height="8" fill="#fff"/><rect x="37" y="1" width="2" height="5" fill="#fff"/><rect x="34" y="1" width="2" height="5" fill="#fff"/><rect x="36" y="9" width="6" height="2" fill="#0a0a0a"/><rect x="23" y="13" width="11" height="6" fill="#000"/><rect x="16" y="13" width="7" height="2" fill="#000"/><rect x="14" y="13" width="2" height="1" fill="#444"/><rect x="13" y="12" width="1" height="2" fill="#444"/><rect x="19" y="16" width="4" height="5" fill="#070707"/><rect x="16" y="17" width="3" height="3" fill="#070707"/><rect x="24" y="19" width="4" height="2" fill="#000"/><rect x="21" y="21" width="3" height="2" fill="#000"/><rect x="31" y="19" width="4" height="2" fill="#000"/><rect x="35" y="21" width="3" height="2" fill="#000"/></g><g class="y"><rect x="34" y="5" width="8" height="8" fill="#fff"/><rect x="37" y="0" width="2" height="5" fill="#fff"/><rect x="34" y="0" width="2" height="5" fill="#fff"/><rect x="36" y="8" width="6" height="2" fill="#0a0a0a"/><rect x="23" y="12" width="11" height="6" fill="#000"/><rect x="16" y="12" width="7" height="2" fill="#000"/><rect x="14" y="12" width="2" height="1" fill="#444"/><rect x="13" y="11" width="1" height="2" fill="#444"/><rect x="19" y="15" width="4" height="5" fill="#070707"/><rect x="16" y="16" width="3" height="3" fill="#070707"/><rect x="26" y="18" width="2" height="4" fill="#000"/><rect x="29" y="18" width="2" height="4" fill="#000"/></g></svg>