<svg xmlns="http://www.w3.org/2000/svg" viewBox="0 0 56 36" shape-rendering="crispEdges"><style>
.f2,.f3,.f4{opacity:0}
@keyframes k1{0%,24.999%{opacity:1}25%,100%{opacity:0}}
@keyframes k2{0%,24.999%{opacity:0}25%,49.999%{opacity:1}50%,100%{opacity:0}}
@keyframes k3{0%,49.999%{opacity:0}50%,74.999%{opacity:1}75%,100%{opacity:0}}
@keyframes k4{0%,74.999%{opacity:0}75%,100%{opacity:1}}
.f1{animation:k1 .90s steps(1,end) infinite}
.f2{animation:k2 .90s steps(1,end) infinite}
.f3{animation:k3 .90s steps(1,end) infinite}
.f4{animation:k4 .90s steps(1,end) infinite}
</style><g class="f1"><rect x="34" y="8" width="10" height="9" fill="#fff"/><rect x="37" y="3" width="2" height="5" fill="#fff"/><rect x="34" y="3" width="2" height="5" fill="#fff"/><rect x="36" y="11" width="8" height="2" fill="#0a0a0a"/><rect x="23" y="17" width="11" height="6" fill="#000"/><rect x="17" y="17" width="6" height="2" fill="#000"/><rect x="19" y="15" width="4" height="2" fill="#000"/><rect x="15" y="17" width="2" height="1" fill="#888"/><rect x="14" y="16" width="1" height="2" fill="#888"/><rect x="21" y="20" width="3" height="6" fill="#060606"/><rect x="27" y="23" width="4" height="2" fill="#000"/><rect x="24" y="25" width="3" height="2" fill="#000"/><rect x="33" y="23" width="3" height="2" fill="#000"/><rect x="36" y="25" width="2" height="2" fill="#000"/></g><g class="f2"><rect x="34" y="7" width="10" height="9" fill="#fff"/><rect x="37" y="2" width="2" height="5" fill="#fff"/><rect x="34" y="2" width="2" height="5" fill="#fff"/><rect x="36" y="10" width="8" height="2" fill="#0a0a0a"/><rect x="23" y="16" width="11" height="6" fill="#000"/><rect x="17" y="16" width="6" height="2" fill="#000"/><rect x="19" y="14" width="4" height="2" fill="#000"/><rect x="15" y="16" width="2" height="1" fill="#888"/><rect x="14" y="15" width="1" height="2" fill="#888"/><rect x="21" y="19" width="3" height="6" fill="#060606"/><rect x="29" y="23" width="3" height="2" fill="#000"/><rect x="32" y="23" width="2" height="2" fill="#000"/><rect x="27" y="22" width="2" height="4" fill="#000"/><rect x="30" y="22" width="2" height="4" fill="#000"/></g><g class="f3"><rect x="34" y="8" width="10" height="9" fill="#fff"/><rect x="37" y="3" width="2" height="5" fill="#fff"/><rect x="34" y="3" width="2" height="5" fill="#fff"/><rect x="36" y="11" width="8" height="2" fill="#0a0a0a"/><rect x="23" y="17" width="11" height="6" fill="#000"/><rect x="17" y="18" width="6" height="2" fill="#000"/><rect x="19" y="16" width="4" height="2" fill="#000"/><rect x="15" y="18" width="2" height="1" fill="#888"/><rect x="14" y="17" width="1" height="2" fill="#888"/><rect x="21" y="20" width="3" height="6" fill="#060606"/><rect x="28" y="22" width="4" height="2" fill="#000"/><rect x="25" y="24" width="3" height="2" fill="#000"/><rect x="34" y="23" width="3" height="2" fill="#000"/><rect x="37" y="24" width="2" height="2" fill="#000"/></g><g class="f4"><rect x="34" y="9" width="10" height="9" fill="#fff"/><rect x="37" y="4" width="2" height="5" fill="#fff"/><rect x="34" y="4" width="2" height="5" fill="#fff"/><rect x="36" y="12" width="8" height="2" fill="#0a0a0a"/><rect x="23" y="18" width="11" height="6" fill="#000"/><rect x="17" y="18" width="6" height="2" fill="#000"/><rect x="19" y="16" width="4" height="2" fill="#000"/><rect x="15" y="18" width="2" height="1" fill="#888"/><rect x="14" y="17" width="1" height="2" fill="#888"/><rect x="21" y="21" width="3" height="6" fill="#060606"/><rect x="30" y="23" width="2" height="2" fill="#000"/><rect x="33" y="23" width="2" height="2" fill="#000"/><rect x="28" y="22" width="2" height="4" fill="#000"/><rect x="31" y="22" width="2" height="4" fill="#000"/></g></svg>