<svg xmlns="http://www.w3.org/2000/svg" viewBox="0 0 32 32" shape-rendering="crispEdges">
  <style>
    .f2 { display: none; }
    @keyframes a { 0%,49.9% { display:block; } 50%,100% { display:none; } }
    @keyframes b { 0%,49.9% { display:none; } 50%,100% { display:block; } }
    .frame1 { animation: a 0.22s infinite; }
    .frame2 { animation: b 0.22s infinite; }
  </style>

  <!-- Keep head exactly same style -->
  <g class="frame1">
    <rect x="19" y="6" width="8" height="8" fill="#fff"/>
    <rect x="22" y="1" width="2" height="5" fill="#fff"/>
    <rect x="19" y="1" width="2" height="5" fill="#fff"/>
    <rect x="21" y="9" width="6" height="2" fill="#0a0a0a"/>

    <!-- Human body sprint, forward lean -->
    <rect x="12" y="13" width="8" height="7" fill="#161616"/>
    <rect x="11" y="14" width="1" height="5" fill="#161616"/>
    <rect x="20" y="14" width="1" height="5" fill="#161616"/>
    <!-- right arm back + gun back -->
    <rect x="6" y="14" width="6" height="2" fill="#161616"/>
    <rect x="4" y="14" width="2" height="1" fill="#2a2a2a"/>
    <rect x="3" y="13" width="1" height="2" fill="#2a2a2a"/>

    <!-- left arm tucked forward -->
    <rect x="19" y="15" width="2" height="3" fill="#161616"/>

    <!-- legs stride -->
    <rect x="12" y="20" width="3" height="2" fill="#161616"/>
    <rect x="10" y="22" width="2" height="2" fill="#161616"/>
    <rect x="19" y="20" width="3" height="2" fill="#161616"/>
    <rect x="22" y="22" width="2" height="2" fill="#161616"/>

    <!-- coat tail -->
    <rect x="8" y="16" width="4" height="4" fill="#0f0f0f"/>
  </g>

  <g class="frame2">
    <rect x="19" y="5" width="8" height="8" fill="#fff"/>
    <rect x="22" y="0" width="2" height="5" fill="#fff"/>
    <rect x="19" y="0" width="2" height="5" fill="#fff"/>
    <rect x="21" y="8" width="6" height="2" fill="#0a0a0a"/>

    <rect x="12" y="12" width="8" height="7" fill="#161616"/>
    <rect x="11" y="13" width="1" height="5" fill="#161616"/>
    <rect x="20" y="13" width="1" height="5" fill="#161616"/>

    <rect x="6" y="13" width="6" height="2" fill="#161616"/>
    <rect x="4" y="13" width="2" height="1" fill="#2a2a2a"/>
    <rect x="3" y="12" width="1" height="2" fill="#2a2a2a"/>

    <rect x="19" y="14" width="2" height="3" fill="#161616"/>

    <!-- gathered legs -->
    <rect x="14" y="19" width="2" height="4" fill="#161616"/>
    <rect x="17" y="19" width="2" height="4" fill="#161616"/>

    <rect x="8" y="15" width="4" height="4" fill="#0f0f0f"/>
  </g>
</svg>