<svg xmlns="http://www.w3.org/2000/svg" viewBox="0 0 50 32" shape-rendering="crispEdges"><style>.b{display:none}@keyframes a{0%,49.9%{display:block}50%,100%{display:none}}@keyframes c{0%,49.9%{display:none}50%,100%{display:block}}.x{animation:a .38s infinite}.y{animation:c .38s infinite}</style><g class="x"><rect x="34" y="6" width="8" height="8" fill="#fff"/><rect x="37" y="1" width="2" height="5" fill="#fff"/><rect x="34" y="1" width="2" height="5" fill="#fff"/><rect x="36" y="9" width="6" height="2" fill="#0a0a0a"/><rect x="22" y="14" width="12" height="6" fill="#000"/><rect x="15" y="15" width="7" height="2" fill="#000"/><rect x="13" y="15" width="2" height="1" fill="#4c4c4c"/><rect x="12" y="14" width="1" height="2" fill="#4c4c4c"/><rect x="17" y="17" width="5" height="6" fill="#060606"/><rect x="13" y="18" width="4" height="3" fill="#060606"/><rect x="23" y="20" width="4" height="2" fill="#000"/><rect x="20" y="22" width="3" height="2" fill="#000"/><rect x="31" y="20" width="4" height="2" fill="#000"/><rect x="35" y="22" width="3" height="2" fill="#000"/></g><g class="y"><rect x="34" y="5" width="8" height="8" fill="#fff"/><rect x="37" y="0" width="2" height="5" fill="#fff"/><rect x="34" y="0" width="2" height="5" fill="#fff"/><rect x="36" y="8" width="6" height="2" fill="#0a0a0a"/><rect x="22" y="13" width="12" height="6" fill="#000"/><rect x="15" y="14" width="7" height="2" fill="#000"/><rect x="13" y="14" width="2" height="1" fill="#4c4c4c"/><rect x="12" y="13" width="1" height="2" fill="#4c4c4c"/><rect x="17" y="16" width="5" height="6" fill="#060606"/><rect x="13" y="17" width="4" height="3" fill="#060606"/><rect x="26" y="19" width="2" height="4" fill="#000"/><rect x="29" y="19" width="2" height="4" fill="#000"/></g></svg>