<svg xmlns="http://www.w3.org/2000/svg" viewBox="0 0 48 32" shape-rendering="crispEdges"><style>
    @keyframes frame1On { 0%, 49.999% { opacity: 1; } 50%, 100% { opacity: 0; } }
    @keyframes frame2On { 0%, 49.999% { opacity: 0; } 50%, 100% { opacity: 1; } }
    .frame1 { opacity: 1; animation: frame1On .42s steps(1, end) infinite; }
    .frame2 { opacity: 0; animation: frame2On .42s steps(1, end) infinite; }
  </style><g class="frame1"><rect x="33" y="6" width="8" height="8" fill="#fff"/><rect x="36" y="1" width="2" height="5" fill="#fff"/><rect x="33" y="1" width="2" height="5" fill="#fff"/><rect x="35" y="9" width="6" height="2" fill="#0a0a0a"/><rect x="23" y="14" width="10" height="5" fill="#000"/><rect x="17" y="15" width="6" height="2" fill="#000"/><rect x="15" y="15" width="2" height="1" fill="#959595"/><rect x="14" y="14" width="1" height="2" fill="#959595"/><rect x="20" y="16" width="3" height="5" fill="#060606"/><rect x="23" y="19" width="3" height="2" fill="#000"/><rect x="21" y="21" width="2" height="2" fill="#000"/><rect x="29" y="19" width="3" height="2" fill="#000"/><rect x="32" y="20" width="2" height="2" fill="#000"/></g><g class="frame2"><rect x="33" y="5" width="8" height="8" fill="#fff"/><rect x="36" y="0" width="2" height="5" fill="#fff"/><rect x="33" y="0" width="2" height="5" fill="#fff"/><rect x="35" y="8" width="6" height="2" fill="#0a0a0a"/><rect x="23" y="13" width="10" height="5" fill="#000"/><rect x="17" y="14" width="6" height="2" fill="#000"/><rect x="15" y="14" width="2" height="1" fill="#959595"/><rect x="14" y="13" width="1" height="2" fill="#959595"/><rect x="20" y="15" width="3" height="5" fill="#060606"/><rect x="25" y="18" width="2" height="4" fill="#000"/><rect x="28" y="18" width="2" height="4" fill="#000"/></g></svg>