<svg xmlns="http://www.w3.org/2000/svg" viewBox="0 0 48 32" shape-rendering="crispEdges"><style>
    @keyframes frame1On { 0%, 49.999% { opacity: 1; } 50%, 100% { opacity: 0; } }
    @keyframes frame2On { 0%, 49.999% { opacity: 0; } 50%, 100% { opacity: 1; } }
    .frame1 { opacity: 1; animation: frame1On .42s steps(1, end) infinite; }
    .frame2 { opacity: 0; animation: frame2On .42s steps(1, end) infinite; }
  </style><g class="frame1"><rect x="33" y="6" width="8" height="8" fill="#fff"/><rect x="36" y="1" width="2" height="5" fill="#fff"/><rect x="33" y="1" width="2" height="5" fill="#fff"/><rect x="35" y="9" width="6" height="2" fill="#0a0a0a"/><rect x="24" y="12" width="9" height="7" fill="#000"/><rect x="18" y="12" width="6" height="2" fill="#000"/><rect x="20" y="10" width="4" height="2" fill="#000"/><rect x="16" y="12" width="2" height="1" fill="#808080"/><rect x="15" y="11" width="1" height="2" fill="#808080"/><rect x="21" y="16" width="3" height="5" fill="#080808"/><rect x="24" y="19" width="3" height="2" fill="#000"/><rect x="22" y="21" width="2" height="2" fill="#000"/><rect x="30" y="18" width="3" height="2" fill="#000"/><rect x="33" y="19" width="2" height="2" fill="#000"/></g><g class="frame2"><rect x="33" y="5" width="8" height="8" fill="#fff"/><rect x="36" y="0" width="2" height="5" fill="#fff"/><rect x="33" y="0" width="2" height="5" fill="#fff"/><rect x="35" y="8" width="6" height="2" fill="#0a0a0a"/><rect x="24" y="11" width="9" height="7" fill="#000"/><rect x="18" y="11" width="6" height="2" fill="#000"/><rect x="20" y="9" width="4" height="2" fill="#000"/><rect x="16" y="11" width="2" height="1" fill="#808080"/><rect x="15" y="10" width="1" height="2" fill="#808080"/><rect x="21" y="15" width="3" height="5" fill="#080808"/><rect x="26" y="18" width="2" height="4" fill="#000"/><rect x="29" y="18" width="2" height="4" fill="#000"/></g></svg>