<svg xmlns="http://www.w3.org/2000/svg" viewBox="0 0 32 32" shape-rendering="crispEdges">
  <style>
    .f2 { display: none; }
    @keyframes a { 0%,49.9% { display:block; } 50%,100% { display:none; } }
    @keyframes b { 0%,49.9% { display:none; } 50%,100% { display:block; } }
    .frame1 { animation: a 0.18s infinite; }
    .frame2 { animation: b 0.18s infinite; }
  </style>

  <g class="frame1">
    <!-- same head -->
    <rect x="19" y="6" width="8" height="8" fill="#fff"/>
    <rect x="22" y="1" width="2" height="5" fill="#fff"/>
    <rect x="19" y="1" width="2" height="5" fill="#fff"/>
    <rect x="21" y="9" width="6" height="2" fill="#0a0a0a"/>

    <!-- upright runner body -->
    <rect x="13" y="13" width="7" height="7" fill="#181818"/>
    <rect x="12" y="15" width="1" height="4" fill="#181818"/>
    <rect x="20" y="15" width="1" height="4" fill="#181818"/>

    <!-- right hand with pistol backward -->
    <rect x="7" y="15" width="5" height="2" fill="#181818"/>
    <rect x="5" y="15" width="2" height="1" fill="#313131"/>
    <rect x="4" y="14" width="1" height="2" fill="#313131"/>

    <!-- pumping left arm -->
    <rect x="20" y="13" width="2" height="4" fill="#181818"/>

    <!-- running legs -->
    <rect x="13" y="20" width="3" height="2" fill="#181818"/>
    <rect x="11" y="22" width="2" height="2" fill="#181818"/>
    <rect x="18" y="20" width="3" height="2" fill="#181818"/>
    <rect x="21" y="22" width="2" height="2" fill="#181818"/>

    <!-- trench coat flare -->
    <rect x="9" y="16" width="3" height="5" fill="#101010"/>
    <rect x="7" y="17" width="2" height="3" fill="#101010"/>
  </g>

  <g class="frame2">
    <rect x="19" y="5" width="8" height="8" fill="#fff"/>
    <rect x="22" y="0" width="2" height="5" fill="#fff"/>
    <rect x="19" y="0" width="2" height="5" fill="#fff"/>
    <rect x="21" y="8" width="6" height="2" fill="#0a0a0a"/>

    <rect x="13" y="12" width="7" height="7" fill="#181818"/>
    <rect x="12" y="14" width="1" height="4" fill="#181818"/>
    <rect x="20" y="14" width="1" height="4" fill="#181818"/>

    <rect x="7" y="14" width="5" height="2" fill="#181818"/>
    <rect x="5" y="14" width="2" height="1" fill="#313131"/>
    <rect x="4" y="13" width="1" height="2" fill="#313131"/>

    <rect x="20" y="12" width="2" height="4" fill="#181818"/>

    <rect x="15" y="19" width="2" height="4" fill="#181818"/>
    <rect x="18" y="19" width="2" height="4" fill="#181818"/>

    <rect x="9" y="15" width="3" height="5" fill="#101010"/>
    <rect x="7" y="16" width="2" height="3" fill="#101010"/>
  </g>
</svg>