<svg xmlns="http://www.w3.org/2000/svg" viewBox="0 0 52 32" shape-rendering="crispEdges"><style>
    .f2,.f3,.f4{opacity:0}
    @keyframes k1{0%,24.999%{opacity:1}25%,100%{opacity:0}}
    @keyframes k2{0%,24.999%{opacity:0}25%,49.999%{opacity:1}50%,100%{opacity:0}}
    @keyframes k3{0%,49.999%{opacity:0}50%,74.999%{opacity:1}75%,100%{opacity:0}}
    @keyframes k4{0%,74.999%{opacity:0}75%,100%{opacity:1}}
    .f1{animation:k1 0.56s steps(1,end) infinite}
    .f2{animation:k2 0.56s steps(1,end) infinite}
    .f3{animation:k3 0.56s steps(1,end) infinite}
    .f4{animation:k4 0.56s steps(1,end) infinite}
  </style><g class="f1"><rect x="33" y="6" width="8" height="8" fill="#fff"/><rect x="36" y="1" width="2" height="5" fill="#fff"/><rect x="33" y="1" width="2" height="5" fill="#fff"/><rect x="35" y="9" width="6" height="2" fill="#0a0a0a"/><rect x="25" y="13" width="9" height="6" fill="#000"/><rect x="19" y="13" width="6" height="2" fill="#000"/><rect x="21" y="11" width="4" height="2" fill="#000"/><rect x="17" y="13" width="2" height="1" fill="#8a8a8a"/><rect x="16" y="12" width="1" height="2" fill="#8a8a8a"/><rect x="22" y="16" width="3" height="5" fill="#070707"/><rect x="27" y="19" width="3" height="2" fill="#000"/><rect x="25" y="21" width="2" height="2" fill="#000"/><rect x="31" y="19" width="3" height="2" fill="#000"/><rect x="34" y="21" width="2" height="2" fill="#000"/></g><g class="f2"><rect x="33" y="6" width="8" height="8" fill="#fff"/><rect x="36" y="1" width="2" height="5" fill="#fff"/><rect x="33" y="1" width="2" height="5" fill="#fff"/><rect x="35" y="9" width="6" height="2" fill="#0a0a0a"/><rect x="25" y="13" width="9" height="6" fill="#000"/><rect x="19" y="13" width="6" height="2" fill="#000"/><rect x="21" y="11" width="4" height="2" fill="#000"/><rect x="17" y="13" width="2" height="1" fill="#8a8a8a"/><rect x="16" y="12" width="1" height="2" fill="#8a8a8a"/><rect x="22" y="16" width="3" height="5" fill="#070707"/><rect x="28" y="19" width="2" height="2" fill="#000"/><rect x="30" y="19" width="2" height="2" fill="#000"/><rect x="27" y="18" width="2" height="4" fill="#000"/><rect x="30" y="18" width="2" height="4" fill="#000"/></g><g class="f3"><rect x="33" y="6" width="8" height="8" fill="#fff"/><rect x="36" y="1" width="2" height="5" fill="#fff"/><rect x="33" y="1" width="2" height="5" fill="#fff"/><rect x="35" y="9" width="6" height="2" fill="#0a0a0a"/><rect x="25" y="13" width="9" height="6" fill="#000"/><rect x="19" y="13" width="6" height="2" fill="#000"/><rect x="21" y="11" width="4" height="2" fill="#000"/><rect x="17" y="13" width="2" height="1" fill="#8a8a8a"/><rect x="16" y="12" width="1" height="2" fill="#8a8a8a"/><rect x="22" y="16" width="3" height="5" fill="#070707"/><rect x="27" y="18" width="3" height="2" fill="#000"/><rect x="24" y="20" width="2" height="2" fill="#000"/><rect x="32" y="19" width="3" height="2" fill="#000"/><rect x="35" y="20" width="2" height="2" fill="#000"/></g><g class="f4"><rect x="33" y="6" width="8" height="8" fill="#fff"/><rect x="36" y="1" width="2" height="5" fill="#fff"/><rect x="33" y="1" width="2" height="5" fill="#fff"/><rect x="35" y="9" width="6" height="2" fill="#0a0a0a"/><rect x="25" y="13" width="9" height="6" fill="#000"/><rect x="19" y="13" width="6" height="2" fill="#000"/><rect x="21" y="11" width="4" height="2" fill="#000"/><rect x="17" y="13" width="2" height="1" fill="#8a8a8a"/><rect x="16" y="12" width="1" height="2" fill="#8a8a8a"/><rect x="22" y="16" width="3" height="5" fill="#070707"/><rect x="28" y="19" width="2" height="2" fill="#000"/><rect x="31" y="19" width="2" height="2" fill="#000"/><rect x="28" y="18" width="2" height="4" fill="#000"/><rect x="31" y="18" width="2" height="4" fill="#000"/></g></svg>