<svg xmlns="http://www.w3.org/2000/svg" viewBox="0 0 48 32" shape-rendering="crispEdges"><style>
.f2,.f3,.f4{opacity:0}
@keyframes k1{0%,24.999%{opacity:1}25%,100%{opacity:0}}
@keyframes k2{0%,24.999%{opacity:0}25%,49.999%{opacity:1}50%,100%{opacity:0}}
@keyframes k3{0%,49.999%{opacity:0}50%,74.999%{opacity:1}75%,100%{opacity:0}}
@keyframes k4{0%,74.999%{opacity:0}75%,100%{opacity:1}}
.f1{animation:k1 1.2s steps(1,end) infinite}
.f2{animation:k2 1.2s steps(1,end) infinite}
.f3{animation:k3 1.2s steps(1,end) infinite}
.f4{animation:k4 1.2s steps(1,end) infinite}
</style><g class="f1"><rect x="19" y="10" width="10" height="9" fill="#fff"/><rect x="20" y="5" width="2" height="6" fill="#fff"/><rect x="23" y="6" width="2" height="5" fill="#fff"/><rect x="21" y="13" width="8" height="2" fill="#050505"/></g><g class="f2"><rect x="19" y="9" width="10" height="9" fill="#fff"/><rect x="20" y="4" width="2" height="6" fill="#fff"/><rect x="23" y="5" width="2" height="5" fill="#fff"/><rect x="21" y="12" width="8" height="2" fill="#050505"/></g><g class="f3"><rect x="19" y="10" width="10" height="9" fill="#fff"/><rect x="20" y="5" width="2" height="6" fill="#fff"/><rect x="23" y="6" width="2" height="5" fill="#fff"/><rect x="21" y="13" width="8" height="2" fill="#050505"/></g><g class="f4"><rect x="19" y="11" width="10" height="9" fill="#fff"/><rect x="20" y="6" width="2" height="6" fill="#fff"/><rect x="23" y="7" width="2" height="5" fill="#fff"/><rect x="21" y="14" width="8" height="2" fill="#050505"/></g></svg>