<svg xmlns="http://www.w3.org/2000/svg" viewBox="0 0 52 32" shape-rendering="crispEdges">
  <style>.f2,.f3{opacity:0}@keyframes k1{0%,33.333%{opacity:1}33.334%,100%{opacity:0}}@keyframes k2{0%,33.333%{opacity:0}33.334%,66.666%{opacity:1}66.667%,100%{opacity:0}}@keyframes k3{0%,66.666%{opacity:0}66.667%,100%{opacity:1}}.f1{animation:k1 .46s steps(1,end) infinite}.f2{animation:k2 .46s steps(1,end) infinite}.f3{animation:k3 .46s steps(1,end) infinite}</style>
  <g class="f1"><rect x="36" y="6" width="8" height="8" fill="#fff"/><rect x="39" y="1" width="2" height="5" fill="#fff"/><rect x="36" y="1" width="2" height="5" fill="#fff"/><rect x="38" y="9" width="6" height="2" fill="#0a0a0a"/>
  <rect x="27" y="12" width="9" height="7" fill="#000"/><rect x="22" y="12" width="5" height="2" fill="#000"/><rect x="20" y="12" width="2" height="1" fill="#8e8e8e"/><rect x="19" y="11" width="1" height="2" fill="#8e8e8e"/>
  <rect x="24" y="16" width="3" height="5" fill="#080808"/>
  <rect x="28" y="19" width="4" height="2" fill="#000"/><rect x="25" y="21" width="3" height="2" fill="#000"/>
  <rect x="33" y="18" width="3" height="2" fill="#000"/><rect x="36" y="19" width="2" height="2" fill="#000"/></g>
  <g class="f2"><rect x="36" y="5" width="8" height="8" fill="#fff"/><rect x="39" y="0" width="2" height="5" fill="#fff"/><rect x="36" y="0" width="2" height="5" fill="#fff"/><rect x="38" y="8" width="6" height="2" fill="#0a0a0a"/>
  <rect x="27" y="11" width="9" height="7" fill="#000"/><rect x="22" y="11" width="5" height="2" fill="#000"/><rect x="20" y="11" width="2" height="1" fill="#8e8e8e"/><rect x="19" y="10" width="1" height="2" fill="#8e8e8e"/>
  <rect x="24" y="15" width="3" height="5" fill="#080808"/>
  <rect x="30" y="18" width="2" height="4" fill="#000"/><rect x="33" y="18" width="2" height="4" fill="#000"/></g>
  <g class="f3"><rect x="36" y="6" width="8" height="8" fill="#fff"/><rect x="39" y="1" width="2" height="5" fill="#fff"/><rect x="36" y="1" width="2" height="5" fill="#fff"/><rect x="38" y="9" width="6" height="2" fill="#0a0a0a"/>
  <rect x="27" y="12" width="9" height="7" fill="#000"/><rect x="22" y="13" width="5" height="2" fill="#000"/><rect x="20" y="13" width="2" height="1" fill="#8e8e8e"/><rect x="19" y="12" width="1" height="2" fill="#8e8e8e"/>
  <rect x="24" y="16" width="3" height="5" fill="#080808"/>
  <rect x="29" y="18" width="3" height="2" fill="#000"/><rect x="26" y="19" width="2" height="2" fill="#000"/>
  <rect x="35" y="20" width="3" height="2" fill="#000"/></g>
</svg>
