<svg xmlns="http://www.w3.org/2000/svg" viewBox="0 0 32 32" shape-rendering="crispEdges">
  <style>.b{display:none}@keyframes f1{0%,49.9%{display:block}50%,100%{display:none}}@keyframes f2{0%,49.9%{display:none}50%,100%{display:block}}.a{animation:f1 .20s infinite}.b{animation:f2 .20s infinite}</style>
  <g class="a">
    <rect x="19" y="6" width="8" height="8" fill="#fff"/><rect x="22" y="1" width="2" height="5" fill="#fff"/><rect x="19" y="1" width="2" height="5" fill="#fff"/><rect x="21" y="9" width="6" height="2" fill="#0a0a0a"/>
    <rect x="11" y="13" width="9" height="7" fill="#000"/><rect x="10" y="14" width="1" height="5" fill="#000"/><rect x="20" y="14" width="1" height="5" fill="#000"/>
    <rect x="6" y="14" width="6" height="2" fill="#000"/><rect x="8" y="12" width="4" height="2" fill="#000"/>
    <rect x="4" y="14" width="2" height="1" fill="#3a3a3a"/><rect x="3" y="13" width="1" height="2" fill="#3a3a3a"/>
    <rect x="7" y="16" width="4" height="5" fill="#0a0a0a"/><rect x="5" y="17" width="2" height="3" fill="#0a0a0a"/><rect x="3" y="18" width="2" height="2" fill="#0a0a0a"/>
    <rect x="11" y="20" width="3" height="2" fill="#000"/><rect x="9" y="22" width="2" height="2" fill="#000"/><rect x="19" y="20" width="3" height="2" fill="#000"/><rect x="22" y="22" width="2" height="2" fill="#000"/>
  </g>
  <g class="b">
    <rect x="19" y="5" width="8" height="8" fill="#fff"/><rect x="22" y="0" width="2" height="5" fill="#fff"/><rect x="19" y="0" width="2" height="5" fill="#fff"/><rect x="21" y="8" width="6" height="2" fill="#0a0a0a"/>
    <rect x="11" y="12" width="9" height="7" fill="#000"/><rect x="10" y="13" width="1" height="5" fill="#000"/><rect x="20" y="13" width="1" height="5" fill="#000"/>
    <rect x="6" y="13" width="6" height="2" fill="#000"/><rect x="8" y="11" width="4" height="2" fill="#000"/>
    <rect x="4" y="13" width="2" height="1" fill="#3a3a3a"/><rect x="3" y="12" width="1" height="2" fill="#3a3a3a"/>
    <rect x="7" y="15" width="4" height="5" fill="#0a0a0a"/><rect x="5" y="16" width="2" height="3" fill="#0a0a0a"/><rect x="3" y="17" width="2" height="2" fill="#0a0a0a"/>
    <rect x="14" y="19" width="2" height="4" fill="#000"/><rect x="17" y="19" width="2" height="4" fill="#000"/>
  </g>
</svg>